<?xml version="1.0" standalone="no"?>
<!DOCTYPE svg PUBLIC "-//W3C//DTD SVG 20010904//EN"
 "http://www.w3.org/TR/2001/REC-SVG-20010904/DTD/svg10.dtd">
<svg version="1.0" xmlns="http://www.w3.org/2000/svg"
 width="83.000000pt" height="83.000000pt" viewBox="0 0 83.000000 83.000000"
 preserveAspectRatio="xMidYMid meet">
<metadata>
Created by potrace 1.11, written by Peter Selinger 2001-2013
</metadata>
<g transform="translate(0.000000,83.000000) scale(0.100000,-0.100000)"
fill="#000000" stroke="none">
<path d="M297 816 c-129 -37 -216 -108 -265 -214 -20 -45 -27 -77 -30 -149 -7
-142 28 -245 111 -331 82 -85 187 -118 354 -110 121 6 192 32 262 94 45 40
101 129 101 160 0 11 -71 34 -108 34 -13 0 -26 -16 -42 -50 -46 -98 -126 -143
-252 -144 -69 0 -85 4 -145 35 -57 29 -73 43 -100 87 -43 73 -60 173 -44 262
31 164 128 243 301 243 53 0 88 -5 120 -20 47 -21 105 -78 121 -120 6 -17 14
-23 27 -19 9 3 35 8 57 12 22 4 43 9 47 11 13 7 -39 97 -79 135 -21 20 -65 49
-98 64 -53 25 -74 28 -175 31 -76 1 -131 -2 -163 -11z"/>
</g>
</svg>
