<svg width="159" height="41" viewBox="0 0 159 41" fill="none" xmlns="http://www.w3.org/2000/svg">
<path fill-rule="evenodd" clip-rule="evenodd" d="M86.2715 29.055H93.5507H99.6682C100.194 29.0464 100.691 29.0199 100.976 28.7947C101.316 28.5259 101.39 28.0291 101.391 27.6311C101.393 26.9216 100.972 26.3005 100.065 26.2398L93.5507 26.2382V17.9495L99.1542 17.8236C99.5812 17.832 100.006 17.6763 100.266 17.3055C100.603 16.8223 100.631 15.8028 100.185 15.3898C99.8779 15.1062 99.337 15.0421 98.8151 15.0435L94.6957 15.0992H93.5507V12.7153L95.1836 12.6946L98.7009 12.6501C99.7443 12.6369 100.108 11.9833 100.113 11.2859C100.117 10.5875 99.7624 9.84473 98.7386 9.84473H97.6551H93.5507H92.4364H86.2715V29.055Z" fill="#FFED00"/>
<path fill-rule="evenodd" clip-rule="evenodd" d="M105.444 20.6294L105.409 20.7725L104.461 24.6261L104.268 25.4197L103.764 27.4938C103.579 28.2175 103.792 28.729 104.135 28.9985C104.14 29.0023 104.145 29.0061 104.15 29.0097C104.26 29.0929 104.382 29.1516 104.509 29.1853C104.582 29.2043 104.655 29.2152 104.728 29.2176C104.942 29.225 105.153 29.1619 105.325 29.0234C105.55 28.8412 105.746 28.55 105.885 28.1329C106.063 27.4331 106.228 26.8122 106.383 26.2438C106.84 24.5664 107.214 23.3462 107.612 21.9065L108.629 23.5976L108.723 23.7543L111.181 27.8431L113.341 24.5962L114.534 22.8021L114.593 22.7137L114.742 22.4889L114.87 22.2973L114.873 22.2929L116.051 20.5212L117.354 26.2218L117.359 26.2444L117.375 26.3156L117.444 26.614L117.494 26.8324L117.648 27.5086L117.671 27.6102L117.776 28.0674L117.82 28.2592L117.989 29.0013H118.34H118.523H118.627H124.855L124.74 28.5644L124.721 28.4913L124.568 27.8822L124.44 27.3665L124.119 26.0825L124.066 25.8692L124.015 25.6648L124.013 25.6568L123.715 24.4651L122.594 20.0256L120.791 12.6974L120.748 12.5233L120.736 12.4748L120.536 11.6633L120.485 11.4557L120.128 10.0017L119.61 10.7777L115.256 17.3032L113.684 19.6596L110.386 13.9961L110.264 13.7875L108.06 10.0017L105.679 19.6763L105.639 19.8388L105.444 20.6294Z" fill="#FFED00"/>
<path fill-rule="evenodd" clip-rule="evenodd" d="M15.3959 3.92808C13.1445 4.21547 11.0277 4.81451 9.04834 5.7276C6.15472 7.06255 3.92262 9.01478 2.35168 11.5845C0.780911 14.154 0 17.1634 0 20.6127C0 23.7765 0.698156 26.732 2.08536 29.4945C3.47238 32.2492 5.49338 34.3559 8.15732 35.8065C10.8213 37.2649 14.2752 37.9904 18.5192 37.9904C22.6254 37.9904 26.0978 37.0413 28.9364 35.1507C31.7747 33.26 33.7405 30.5208 34.8337 26.9171L29.5977 25.8061C28.8811 28.5994 27.5125 30.6984 25.4915 32.1181C23.4705 33.5302 21.0087 34.2401 18.0874 34.2401C15.69 34.2401 13.467 33.723 11.4091 32.6814C9.35148 31.6397 7.83577 30.0733 6.86217 27.9665C5.8884 25.8678 5.40151 23.4061 5.40151 20.5897C5.40151 18.4058 5.81494 16.2838 6.64161 14.2235C7.45917 12.1709 8.89212 10.5273 10.9222 9.30819C12.9524 8.08887 15.4878 7.47921 18.5099 7.47921C18.9378 7.47921 19.3538 7.49384 19.7579 7.5227C21.8441 7.67181 23.6146 8.20611 25.069 9.13062C26.8051 10.2263 28.137 11.9857 29.0465 14.3933L34.1724 13.3746C33.116 10.3189 31.2419 7.94998 28.5505 6.26009C25.8681 4.5702 22.5519 3.72906 18.602 3.72906C17.5047 3.72906 16.436 3.79541 15.3959 3.92808Z" fill="#FFED00"/>
<path fill-rule="evenodd" clip-rule="evenodd" d="M82.3855 12.563L83.2554 12.5584C84.7763 12.5443 84.8859 10.259 83.6648 9.82131C83.543 9.77762 83.4083 9.75217 83.2603 9.74936L81.2736 9.74475L81.0784 9.74435L80.7274 9.74355L74.1706 9.72872L68.8109 9.71649C67.2554 9.76279 67.2972 12.6039 68.7425 12.5932L70.9324 12.5936L72.5849 12.6033L72.6201 13.935L72.6564 17.7465L72.6494 18.8257L72.6222 23.0109L72.6199 23.3909L72.6195 23.4376L72.5838 28.9596H73.2485H73.5971H73.6843H73.8906H74.8112H74.8318H79.755L79.7393 22.6163L79.7309 19.2824L79.737 18.3906L79.7407 17.8284L79.7448 17.2262L79.7457 17.0961L79.7591 15.1014L79.7845 12.5768L82.3855 12.563Z" fill="#FFED00"/>
<path fill-rule="evenodd" clip-rule="evenodd" d="M60.5718 26.0011C60.3534 26.0061 60.1255 26.0039 59.8862 25.9929L59.8814 25.4819L59.8644 23.6385L59.8313 20.0567L59.8848 12.691C61.7628 12.4205 62.8808 12.6948 63.6344 13.1556C64.2589 13.5376 64.633 14.0476 64.9817 14.4813C65.3088 14.8884 65.6334 15.1928 65.9446 15.3181C66.8156 15.6686 67.5016 14.9691 67.2251 13.9118C67.1048 13.452 66.755 12.9818 66.2279 12.3952C65.3045 11.3715 64.2785 10.6534 63.1495 10.2416C63.0985 10.2229 63.0476 10.2049 62.9963 10.1877C62.2829 9.94697 61.5294 9.82632 60.7349 9.82632C60.2794 9.82632 59.8353 9.86801 59.4025 9.95138C58.662 10.0939 57.9549 10.3586 57.2825 10.747C56.3418 11.3022 55.5369 12.0138 54.869 12.8844C54.4995 13.3656 54.1719 13.8955 53.8864 14.4743C53.1372 16.0013 52.7607 17.6224 52.7607 19.3424C52.7607 19.554 52.7665 19.764 52.7777 19.9725C52.8569 21.4281 53.2122 22.8091 53.8412 24.1253C54.711 25.9306 55.9759 27.2507 57.6364 28.0862C58.6754 28.6115 59.7071 28.8765 60.7386 28.8765C61.1694 28.8765 61.6127 28.8294 62.067 28.7344C62.1196 28.7234 62.1723 28.7117 62.225 28.6993C62.4622 28.6442 62.7022 28.5761 62.9448 28.4947C63.7952 28.2127 64.5717 27.7842 65.2741 27.2078C65.4711 27.0463 65.6624 26.8731 65.8477 26.6882C65.9903 26.5459 66.1298 26.3966 66.2656 26.2404C66.6513 25.7961 67.0104 25.2983 67.3425 24.7502C67.3829 24.6832 67.4231 24.6157 67.4628 24.5473C67.823 23.9273 68.3762 22.8029 67.7175 22.1323C67.3218 21.7295 66.5602 21.7041 66.0831 22.2193C65.8128 22.5115 65.5707 22.9512 65.2613 23.429C64.8094 24.1267 64.2144 24.9051 63.1795 25.4215C62.585 25.7184 61.845 25.9286 60.9038 25.9873C60.796 25.9941 60.685 25.9983 60.5718 26.0011Z" fill="#FFED00"/>
<path fill-rule="evenodd" clip-rule="evenodd" d="M49.1121 27.696C49.1431 27.9766 49.2044 28.2217 49.3161 28.4045C49.5382 28.7674 50.0455 28.9412 50.4988 28.8306C50.7295 28.7743 50.9464 28.6444 51.1045 28.4281C51.148 28.3688 51.1868 28.3031 51.2204 28.2307C51.2563 28.1538 51.286 28.069 51.3087 27.9764C51.3188 27.9347 51.3278 27.8916 51.3351 27.8465C51.4969 26.8383 51.392 24.9906 51.3648 23.9611C51.361 23.818 51.3587 23.6906 51.3589 23.5835L51.3651 19.1071L51.3784 9.94437L47.4406 12.7219L46.9224 13.0875L46.8346 13.1494L43.8429 15.2597L43.744 15.3295L43.2425 15.6832L39.5528 18.2858L39.5108 11.2314C39.5072 10.6292 39.0952 10.2961 38.5338 10.2418C37.9368 10.1841 37.1328 10.3053 37.1328 11.197V11.3779C37.1366 11.5587 37.1401 11.8543 37.1401 12.269L37.1376 17.9224L37.1328 29.0274C38.6194 27.9157 40.7977 26.3761 43.6602 24.4177C43.9346 24.2297 44.1891 24.0551 44.4268 23.8918C44.9107 23.5599 45.3244 23.2753 45.6918 23.0232C46.9419 22.1652 47.6554 21.6822 48.7725 20.9731C48.8499 20.924 48.9291 20.8739 49.0106 20.8224L49.0158 21.2523L49.0667 25.6147L49.0687 25.7699L49.0701 25.9055L49.0855 27.2134C49.0875 27.3818 49.0953 27.5441 49.1121 27.696Z" fill="#FFED00"/>
<path fill-rule="evenodd" clip-rule="evenodd" d="M7.32536 5.85429C10.6451 8.09812 20.3172 14.3186 20.4609 19.1012C20.4836 19.8586 19.8248 20.433 19.246 21.1671C14.749 26.8709 8.69182 28.741 3.04883 31.4097C7.19845 31.076 11.3415 30.0629 12.9086 29.555C14.5325 29.0287 17.3114 27.2753 19.2838 25.6556C20.7739 24.4319 21.7182 23.1181 21.7352 23.4095C21.9768 27.591 19.9474 32.1879 18.1055 35.7388L15.5195 40.7243C21.2966 35.5452 26.2266 28.0854 24.7718 19.3073C27.5088 13.3087 27.2604 4.3077 22.5527 0C22.9998 1.32353 23.8443 2.76772 24.1596 4.59469C24.6771 7.59408 24.4431 11.1482 23.675 13.362C23.3435 14.318 23.1222 15.0707 22.793 15.0587C22.6442 15.0533 20.4522 12.0559 17.5484 9.96538C15.2455 8.30736 9.96106 6.47116 7.32536 5.85429Z" fill="#FEFEFE"/>
<path fill-rule="evenodd" clip-rule="evenodd" d="M20.8437 5.33519C19.6254 5.56907 18.7991 6.95493 18.9984 8.43038C19.1975 9.90603 20.3466 10.9125 21.5649 10.6786C22.783 10.4447 23.6093 9.05888 23.4102 7.58323C23.2111 6.10778 22.062 5.10111 20.8437 5.33519Z" fill="#FEFEFE"/>
<path fill-rule="evenodd" clip-rule="evenodd" d="M126.519 35.0815C126.492 35.137 126.467 35.1893 126.443 35.2386L126.418 35.2913C126.357 35.4216 126.308 35.5304 126.268 35.6236L126.264 35.6334C126.208 35.7695 126.161 35.8998 126.123 36.0244C125.612 37.7041 126.763 38.3304 127.718 37.9897C127.861 37.9386 127.994 37.86 128.117 37.7596C128.136 37.7438 128.155 37.7271 128.174 37.7101C128.19 37.6955 128.207 37.6805 128.222 37.6648C128.395 37.4965 128.541 37.283 128.655 37.0425L130.674 33.3271L133.616 33.3393L136.03 33.3493H142.829L144.79 37.7638H158.874L142.635 2.69458L141.048 5.96834L131.085 25.9482L128.738 30.6541C127.531 33.0819 126.873 34.355 126.519 35.0815ZM144.962 13.7737L141.434 20.8585L138.606 26.6952L144.643 26.8441L150.694 26.6952L144.962 13.7737Z" fill="#FFED00"/>
<path d="M84.1104 37.8155H82.4451L81.5893 35.5907L81.0747 36.4487V37.8155H79.6387V31.8958H81.0747V34.3379L82.4388 31.8958H83.8053L82.5541 34.0583L84.1104 37.8155ZM87.4078 37.9041C86.7096 37.9041 86.1403 37.6275 85.7001 37.0757C85.2599 36.524 85.0404 35.7861 85.0404 34.8616C85.0404 33.9783 85.2513 33.2476 85.6717 32.6709C86.0921 32.0955 86.676 31.8071 87.4226 31.8071C88.1133 31.8071 88.6775 32.0792 89.1128 32.6221C89.548 33.1649 89.7652 33.8898 89.7652 34.7964C89.7652 35.7358 89.5457 36.4885 89.1067 37.0551C88.6677 37.6217 88.1022 37.9041 87.4078 37.9041ZM87.4015 36.5641C87.6595 36.5641 87.8455 36.4294 87.9583 36.1617C88.0713 35.8939 88.1283 35.4043 88.1283 34.6928C88.1283 33.6619 87.895 33.1472 87.4301 33.1472C86.9279 33.1472 86.6773 33.7344 86.6773 34.9103C86.6773 36.0123 86.9191 36.5641 87.4015 36.5641ZM96.7294 31.8958V37.8155H95.3156V33.5821L94.3919 37.8155H93.4258L92.4734 33.5821V37.8155H91.335V31.8958H93.3203L94.0396 35.0405L94.7266 31.8958H96.7294ZM98.5213 37.8155V31.8958H102.621V37.8155H101.14V33.1649H100.002V37.8155H98.5213ZM105.025 37.8155H103.809L105.379 31.8958H106.996L108.539 37.8155H107.036L106.04 33.6042L105.025 37.8155ZM113.483 36.4044V37.8155H109.748V31.8958H113.483V33.2625H111.243V34.1235H113.051V35.437H111.243V36.4044H113.483ZM119.483 37.8155H117.818L116.962 35.5907L116.448 36.4487V37.8155H115.012V31.8958H116.448V34.3379L117.812 31.8958H119.178L117.927 34.0583L119.483 37.8155ZM123.373 35.5612L124.765 35.6602C124.699 36.3835 124.475 36.9383 124.091 37.3243C123.708 37.7105 123.237 37.9041 122.678 37.9041C122.004 37.9041 121.461 37.6379 121.048 37.1068C120.634 36.5759 120.427 35.8408 120.427 34.9059C120.427 33.9783 120.623 33.23 121.015 32.6604C121.407 32.0911 121.954 31.8071 122.655 31.8071C123.311 31.8071 123.816 32.0229 124.168 32.4548C124.519 32.8869 124.719 33.4607 124.765 34.1738L123.344 34.2653C123.344 33.8705 123.281 33.5865 123.154 33.4104C123.027 33.2344 122.877 33.1472 122.706 33.1472C122.229 33.1472 121.989 33.7226 121.989 34.8748C121.989 35.5197 122.051 35.959 122.176 36.1897C122.301 36.422 122.476 36.5374 122.7 36.5374C123.101 36.5374 123.325 36.212 123.373 35.5612Z" fill="#FFED00"/>
<path d="M38.1351 5.9543C37.788 5.92183 37.5206 5.78535 37.3336 5.54566C37.1468 5.30616 37.0537 5.01095 37.0537 4.66023C37.0537 4.31051 37.1474 4.0153 37.3351 3.7764C37.5218 3.53771 37.7887 3.40203 38.1351 3.36956V2.97916H38.7977V3.36956C39.1475 3.40203 39.4156 3.53851 39.6011 3.77881C39.7866 4.01931 39.8791 4.31371 39.8791 4.66023C39.8791 5.01256 39.7847 5.30857 39.5958 5.54726C39.4075 5.78615 39.1416 5.92183 38.7977 5.9543V6.3447H38.1351V5.9543ZM38.1351 4.00267C37.9197 4.10809 37.8119 4.32714 37.8119 4.65963C37.8119 4.99191 37.9197 5.21097 38.1351 5.31638V4.00267ZM38.7977 5.31638C39.0131 5.21097 39.1208 4.99191 39.1208 4.65963C39.1208 4.32714 39.0131 4.10809 38.7977 4.00267V5.31638ZM48.7553 5.91462V6.24951H47.9611V3.07435H48.7553V4.34538C48.7553 4.51432 48.7472 4.71514 48.7313 4.94902C48.8285 4.6953 48.9256 4.47064 49.0214 4.27403L49.4416 3.41385V3.07435H50.2359V6.24951H49.4416V4.98951C49.4416 4.80793 49.4484 4.60792 49.4617 4.38827C49.3839 4.60171 49.2874 4.82617 49.1723 5.06106L48.7553 5.91462ZM59.5243 3.83593V6.24951H58.7502V3.83593H58.1995V3.07435H60.0752V3.83593H59.5243ZM70.2941 3.07435V6.24951H69.476V5.01656H68.8576V6.24951H68.0393V3.07435H68.8576V4.24537H69.476V3.07435H70.2941ZM80.4934 5.49254V6.24951H78.4899V3.07435H80.4934V3.80747H79.2921V4.26922H80.2619V4.97367H79.2921V5.49254H80.4934ZM90.0073 5.04041L90.7536 5.09352C90.7184 5.48152 90.5979 5.77894 90.3925 5.98597C90.187 6.19319 89.9342 6.29701 89.6341 6.29701C89.2731 6.29701 88.9817 6.15431 88.7603 5.86932C88.5381 5.58453 88.4269 5.19032 88.4269 4.68889C88.4269 4.19146 88.532 3.79003 88.7422 3.4846C88.9524 3.17917 89.2457 3.02686 89.6221 3.02686C89.9741 3.02686 90.2447 3.14269 90.4336 3.37417C90.6218 3.60585 90.7289 3.91369 90.7536 4.29607L89.9914 4.34538C89.9914 4.13354 89.9575 3.98123 89.8895 3.88683C89.8218 3.79244 89.7414 3.74554 89.6495 3.74554C89.3933 3.74554 89.265 4.05418 89.265 4.67225C89.265 5.01817 89.2983 5.25385 89.3648 5.37751C89.432 5.50216 89.5258 5.56389 89.6461 5.56389C89.8609 5.56389 89.9814 5.38933 90.0073 5.04041ZM106.423 6.24951H105.53L105.071 5.05625L104.795 5.5164V6.24951H104.025V3.07435H104.795V4.38426L105.527 3.07435H106.26L105.589 4.23435L106.423 6.24951ZM114.702 6.24951H114.05L114.892 3.07435H115.759L116.587 6.24951H115.781L115.246 3.99064L114.702 6.24951ZM125.128 5.26808L124.117 3.07435H125.022L125.49 4.29468L125.874 3.07435H126.596L125.812 5.38873C125.742 5.59816 125.662 5.76551 125.571 5.88997C125.481 6.01462 125.382 6.10581 125.274 6.16373C125.166 6.22085 125.029 6.24951 124.864 6.24951H124.452V5.54485H124.726C124.954 5.54485 125.088 5.45286 125.128 5.26808ZM134.439 6.24951V3.07435H136.403V3.74073H135.233V4.31211H135.676C135.923 4.31211 136.115 4.34458 136.253 4.40971C136.392 4.47465 136.502 4.58106 136.584 4.72777C136.666 4.87447 136.706 5.05224 136.706 5.26247C136.706 5.43623 136.673 5.60518 136.607 5.76952C136.54 5.93446 136.427 6.05511 136.268 6.13287C136.108 6.21063 135.946 6.24951 135.782 6.24951H134.439ZM135.233 5.54485H135.631C135.794 5.54485 135.876 5.44645 135.876 5.24985C135.876 5.05945 135.776 4.96426 135.576 4.96426H135.233V5.54485Z" fill="#FEFEFE"/>
</svg>
