<svg width="65" height="65" viewBox="0 0 65 65" fill="none" xmlns="http://www.w3.org/2000/svg">
<circle cx="32.5" cy="32.5" r="32.5" fill="#FEDB77"/>
<g clip-path="url(#clip0)">
<path d="M27.8185 41.7067C28.1863 42.0874 28.7985 42.0874 29.1792 41.7067C29.5471 41.3388 29.5471 40.7266 29.1792 40.3597L22.2796 33.46L45.0474 33.46C45.5782 33.4592 46 33.0373 46 32.5066C46 31.9759 45.5782 31.5403 45.0474 31.5403L22.2796 31.5403L29.1792 24.6535C29.5471 24.2728 29.5471 23.6598 29.1792 23.2928C28.7985 22.9121 28.1855 22.9121 27.8185 23.2928L19.2855 31.8258C18.9048 32.1936 18.9048 32.8058 19.2855 33.1728L27.8185 41.7067Z" fill="#1E201D"/>
</g>
<defs>
<clipPath id="clip0">
<rect width="27" height="27" fill="white" transform="translate(46 46) rotate(-180)"/>
</clipPath>
</defs>
</svg>
