<svg width="183" height="165" viewBox="0 0 183 165" fill="none" xmlns="http://www.w3.org/2000/svg">
<path d="M132.338 5.20636L-6.83621 42.4979C-16.9299 45.2025 -22.9463 55.6233 -20.2416 65.7173L1.34825 146.292C4.05284 156.385 14.4736 162.402 24.5672 159.697L163.741 122.406C173.835 119.701 179.851 109.28 177.146 99.1867L155.557 18.6123C152.852 8.51819 142.431 2.50177 132.338 5.20636ZM169.822 101.149C171.445 107.207 167.836 113.457 161.778 115.08L22.6045 152.372C16.5466 153.995 10.2962 150.386 8.67298 144.329L-12.9168 63.7546C-14.54 57.6967 -10.9313 51.4463 -4.87344 49.8231L134.3 12.5316C140.358 10.9084 146.609 14.5171 148.232 20.575L169.821 101.149L169.822 101.149Z" fill="#F6CD66"/>
<path d="M152.874 23.2558L-15.5991 68.3981C-17.6208 68.9398 -18.822 71.0204 -18.2803 73.0421L-12.3922 95.0169C-11.8505 97.0386 -9.76991 98.2398 -7.74823 97.6981L160.725 52.5557C162.747 52.014 163.948 49.9334 163.407 47.9117L157.519 25.9369C156.976 23.9153 154.896 22.7141 152.874 23.2558ZM155.1 46.2119L-6.04876 89.3916L-9.97421 74.7416L151.174 31.562L155.1 46.212L155.1 46.2119Z" fill="#F6CD66"/>
<path d="M64.0653 102.008L20.1157 113.785C18.094 114.326 16.8928 116.407 17.4345 118.429C17.9762 120.45 20.0567 121.651 22.0784 121.11L66.028 109.333C68.0497 108.792 69.2509 106.711 68.7092 104.689C68.1675 102.668 66.087 101.467 64.0653 102.008Z" fill="#F6CD66"/>
<path d="M67.9911 116.658L24.0415 128.434C22.0198 128.976 20.8186 131.057 21.3603 133.078C21.902 135.1 23.9826 136.301 26.0043 135.76L69.9539 123.983C71.9756 123.442 73.1768 121.361 72.6351 119.339C72.093 117.318 70.0128 116.116 67.9911 116.658Z" fill="#F6CD66"/>
<path d="M135.351 75.0564L128.026 77.0191C121.969 78.6423 118.36 84.8927 119.983 90.9506L121.946 98.2754C123.569 104.333 129.819 107.942 135.877 106.319L143.202 104.356C149.26 102.733 152.869 96.4824 151.245 90.4246L149.283 83.0998C147.66 77.0423 141.409 73.4332 135.351 75.0564ZM143.921 92.3876C144.462 94.4093 143.261 96.4899 141.24 97.0316L133.915 98.9943C131.893 99.536 129.812 98.3347 129.271 96.3131L127.308 88.9882C126.766 86.9666 127.968 84.886 129.989 84.3443L137.314 82.3816C139.336 81.8399 141.416 83.0411 141.958 85.0628L143.921 92.3876Z" fill="#F6CD66"/>
</svg>
