<svg width="20" height="20" viewBox="0 0 20 20" fill="none" xmlns="http://www.w3.org/2000/svg">
<g clip-path="url(#clip0)">
<path fill-rule="evenodd" clip-rule="evenodd" d="M11.3566 10.0002L19.72 1.63682C20.0946 1.26218 20.0946 0.654844 19.72 0.280211C19.3453 -0.094421 18.738 -0.094421 18.3634 0.280211L9.99998 8.64359L1.6366 0.28149C1.26197 -0.0931424 0.65463 -0.0931424 0.279998 0.28149C-0.0946347 0.656122 -0.0946347 1.26346 0.279998 1.63809L8.64338 10.0015L0.281276 18.3636C-0.0933561 18.7382 -0.0933561 19.3456 0.281276 19.7202C0.469232 19.9069 0.713446 20.0015 0.958939 20.0015C1.20443 20.0015 1.44992 19.9081 1.6366 19.7202L9.99998 11.3568L18.3634 19.7202C18.5513 19.9069 18.7955 20.0015 19.041 20.0015C19.2865 20.0015 19.532 19.9081 19.7187 19.7202C20.0933 19.3456 20.0933 18.7382 19.7187 18.3636L11.3566 10.0002Z" fill="black"/>
</g>
<defs>
<clipPath id="clip0">
<rect width="20" height="20" fill="white"/>
</clipPath>
</defs>
</svg>
