<svg width="86" height="28" viewBox="0 0 86 28" fill="none" xmlns="http://www.w3.org/2000/svg">
<path d="M35.417 12.39V5.91406H38.1905C40.2437 5.91406 41.7565 7.11728 41.7565 9.13427C41.7565 11.1514 40.2796 12.3545 38.2265 12.3545H35.417V12.39ZM40.0275 9.1697C40.0275 8.17889 39.4151 7.40035 38.2265 7.40035H37.1459V10.9391H38.2265C39.3431 10.9391 40.0275 10.1252 40.0275 9.1697Z" fill="white"/>
<path d="M42.4053 9.1697C42.4053 7.18787 43.9182 5.84326 45.9353 5.84326C47.9524 5.84326 49.4293 7.22338 49.4293 9.1697C49.4293 11.116 47.9163 12.4961 45.9353 12.4961C43.8821 12.4961 42.4053 11.116 42.4053 9.1697ZM47.7003 9.1697C47.7003 8.10809 47.0159 7.29411 45.9353 7.29411C44.8547 7.29411 44.1342 8.10809 44.1342 9.1697C44.1342 10.2313 44.8186 11.0452 45.9353 11.0452C46.9798 11.0452 47.7003 10.1959 47.7003 9.1697Z" fill="white"/>
<path d="M54.1115 12.39L52.995 10.2313H52.1304V12.39H50.4375V5.91406H53.715C55.1563 5.91406 55.9847 6.86944 55.9847 8.07265C55.9847 9.20507 55.3003 9.80664 54.6881 10.019L56.0209 12.39H54.1115ZM54.2916 8.07265C54.2916 7.64805 53.9313 7.40035 53.4632 7.40035H52.1304V8.78047H53.4632C53.8951 8.78047 54.2916 8.53276 54.2916 8.07265Z" fill="white"/>
<path d="M56.668 9.1697C56.668 7.18787 58.1802 5.84326 60.1975 5.84326C62.2147 5.84326 63.6915 7.22338 63.6915 9.1697C63.6915 11.116 62.1785 12.4961 60.1975 12.4961C58.1802 12.4961 56.668 11.116 56.668 9.1697ZM61.9984 9.1697C61.9984 8.10809 61.3139 7.29411 60.2336 7.29411C59.1534 7.29411 58.4327 8.10809 58.4327 9.1697C58.4327 10.2313 59.1172 11.0452 60.2336 11.0452C61.2784 11.0452 61.9984 10.1959 61.9984 9.1697Z" fill="white"/>
<path d="M69.1334 12.39V9.80664H66.3955V12.39H64.7031V5.91406H66.3955V8.35579H69.1334V5.94943H70.8265V12.39H69.1334Z" fill="white"/>
<path d="M71.833 9.1697C71.833 7.18787 73.3459 5.84326 75.3632 5.84326C77.3805 5.84326 78.8572 7.22338 78.8572 9.1697C78.8572 11.116 77.3443 12.4961 75.3632 12.4961C73.3459 12.4961 71.833 11.116 71.833 9.1697ZM77.1287 9.1697C77.1287 8.10809 76.4442 7.29411 75.327 7.29411C74.2468 7.29411 73.5261 8.10809 73.5261 9.1697C73.5261 10.2313 74.2106 11.0452 75.327 11.0452C76.4442 11.0452 77.1287 10.1959 77.1287 9.1697Z" fill="white"/>
<path d="M81.3799 12.39L78.8945 5.91406H80.804L82.4247 10.5853L84.0455 5.91406H85.9549L83.4695 12.3545H81.3799V12.39Z" fill="white"/>
<path d="M35.417 22.0511V15.6106H38.1905C40.2437 15.6106 41.7565 16.8137 41.7565 18.8309C41.7565 20.848 40.2796 22.0511 38.2265 22.0511H35.417ZM40.0275 18.8309C40.0275 17.8401 39.4151 17.0614 38.2265 17.0614H37.1459V20.6002H38.2265C39.3431 20.6002 40.0275 19.7862 40.0275 18.8309Z" fill="white"/>
<path d="M42.7656 22.0511V15.6106H47.5564V17.0614H44.4226V18.0523H47.4843V19.5032H44.4226V20.6002H47.5564V22.0511H42.7656Z" fill="white"/>
<path d="M48.3145 21.166L49.215 19.9274C49.6832 20.3874 50.4036 20.7766 51.3041 20.7766C51.8804 20.7766 52.2406 20.5644 52.2406 20.2458C52.2406 19.3612 48.5306 20.0689 48.5306 17.5918C48.5306 16.4948 49.4671 15.5393 51.16 15.5393C52.2046 15.5393 53.1411 15.8578 53.8256 16.4241L52.889 17.6272C52.3486 17.1672 51.6283 16.9549 50.9799 16.9549C50.4757 16.9549 50.2595 17.1318 50.2595 17.4149C50.2595 18.2288 53.9696 17.6272 53.9696 20.0336C53.9696 21.3429 52.9971 22.1922 51.2321 22.1922C49.8994 22.1922 48.9628 21.7676 48.3145 21.166Z" fill="white"/>
<path d="M54.9414 22.0511V15.6106H56.6345V22.0511H54.9414Z" fill="white"/>
<path d="M57.6436 18.8305C57.6436 16.7781 59.2281 15.5042 61.2092 15.5042C62.686 15.5042 63.5506 16.2826 64.0188 17.0612L62.6144 17.7689C62.3618 17.3442 61.8575 16.955 61.2092 16.955C60.1282 16.955 59.3721 17.7689 59.3721 18.8305C59.3721 19.8921 60.1282 20.7061 61.2092 20.7061C61.6774 20.7061 62.1817 20.5292 62.4342 20.3169V19.8214H60.9574V18.3706H64.1266V20.9537C63.4067 21.7323 62.4697 22.2278 61.2092 22.2278C59.2643 22.1924 57.6436 20.883 57.6436 18.8305Z" fill="white"/>
<path d="M69.7799 22.0511L67.0066 18.3354V22.0865H65.3135V15.6106H67.0428L69.7076 19.1493V15.6106H71.4007V22.0511H69.7799Z" fill="white"/>
<path d="M11.3204 0.0395508H0.0820312V27.8896H11.3924C20.9017 27.8896 27.0252 22.4045 27.0252 13.9469C26.9891 5.48929 20.8657 0.0395508 11.3204 0.0395508ZM11.0322 22.2984H6.02535V6.02013H11.1042C16.9755 6.02013 21.0818 8.28489 21.0818 13.9823C21.0818 18.5473 17.3357 22.2984 11.0322 22.2984Z" fill="white"/>
<path d="M12.1844 10.656H10.8877V17.2735H12.1844C14.7419 17.2735 16.2547 15.7519 16.2547 13.8763C16.2187 11.5761 14.5618 10.656 12.1844 10.656Z" fill="white"/>
</svg>
