<svg width="45" height="45" viewBox="0 0 45 45" fill="none" xmlns="http://www.w3.org/2000/svg">
<path d="M22.5 0C14.8125 0 7.875 3.93754 3.75003 10.125V1.87497H0V16.875H15V13.125H6.37497C9.74997 7.31246 15.75 3.75003 22.5 3.75003C32.8125 3.75003 41.25 12.1875 41.25 22.5C41.25 32.8125 32.8125 41.25 22.5 41.25C13.5 41.25 5.625 34.875 4.12506 25.8749C3.93754 24.9374 3.00006 24.1875 1.87506 24.375C0.937573 24.5625 0.187602 25.5 0.375117 26.625C2.25 37.3125 11.625 45 22.5 45C34.875 45 45 34.875 45 22.5C45 10.125 34.875 0 22.5 0Z" fill="black"/>
</svg>
