<svg width="12" height="12" viewBox="0 0 12 12" fill="none" xmlns="http://www.w3.org/2000/svg">
<path d="M0.817725 10.0907H2.72685V11.7273C2.72685 11.8069 2.75233 11.8721 2.80358 11.9231C2.8547 11.9744 2.92005 12 2.99965 12H4.42287C4.49674 12 4.56065 11.9744 4.61464 11.9231C4.66862 11.8721 4.69554 11.8069 4.69554 11.7273V10.0907H8.9995C9.07894 10.0907 9.14431 10.0654 9.19554 10.0141C9.24683 9.96291 9.27228 9.89768 9.27228 9.81805V8.7271C9.27228 8.64794 9.24683 8.58229 9.19554 8.53133C9.14445 8.48005 9.07894 8.45441 8.9995 8.45441H4.69539V7.44869H7.59312C8.72942 7.44869 9.65684 7.10244 10.3758 6.40897C11.0945 5.71622 11.454 4.82136 11.454 3.72434C11.454 2.62805 11.0945 1.73317 10.3758 1.03972C9.65698 0.346949 8.7294 0 7.59312 0H2.99951C2.91988 0 2.85468 0.0256172 2.80344 0.0765927C2.75233 0.127851 2.72671 0.193481 2.72671 0.272662V5.63359H0.817725C0.738121 5.63359 0.67289 5.66052 0.621656 5.71448C0.570563 5.76847 0.544922 5.83238 0.544922 5.90622V7.17598C0.544922 7.2556 0.570398 7.32084 0.621656 7.37207C0.672914 7.42335 0.73798 7.44866 0.817725 7.44866H2.72685V8.45439H0.817725C0.738121 8.45439 0.67289 8.48003 0.621656 8.53131C0.570563 8.58226 0.544922 8.64778 0.544922 8.72707V9.81803C0.544922 9.89765 0.570398 9.96288 0.621656 10.0141C0.67289 10.0654 0.738097 10.0907 0.817725 10.0907ZM4.69539 1.81552H7.42267C8.02487 1.81552 8.51059 1.9916 8.88002 2.34386C9.24927 2.69615 9.43398 3.15653 9.43398 3.72448C9.43398 4.29272 9.24927 4.75324 8.88002 5.10511C8.51059 5.45768 8.02485 5.63375 7.42267 5.63375H4.69539V1.81552Z" fill="white"/>
</svg>
