<svg width="74" height="96" viewBox="0 0 74 96" fill="none" xmlns="http://www.w3.org/2000/svg">
<path d="M27.75 5.866C26.378 4.004 24.642 3.864 23.76 3.864C21.268 3.864 19.854 5.194 19.854 6.944C19.854 8.876 21.422 9.408 22.682 9.688L23.942 9.968C25.188 10.248 25.846 10.43 25.846 11.242C25.846 12.096 25.02 12.544 23.942 12.544C22.122 12.544 21.31 11.704 20.876 11.06L19.322 12.138C20.204 13.664 21.996 14.252 23.648 14.252C25.412 14.252 27.848 13.51 27.848 11.06C27.848 9.072 26.196 8.47 24.642 8.134L23.606 7.91C22.556 7.686 21.8 7.504 21.8 6.734C21.8 5.684 23.228 5.53 23.648 5.53C25.202 5.53 25.916 6.496 26.224 7L27.75 5.866ZM35.9959 10.514C35.7019 11.522 34.8759 12.502 33.6019 12.502C31.4039 12.502 30.8579 10.332 30.8579 8.988C30.8579 6.79 32.0059 5.558 33.6159 5.558C34.7079 5.558 35.6179 6.314 35.7299 7.392L37.5639 6.916C37.1439 5.502 36.0939 3.864 33.5459 3.864C30.1019 3.864 28.8559 6.762 28.8559 8.96C28.8559 12.656 31.1379 14.252 33.4759 14.252C36.3179 14.252 37.4239 12.082 37.7459 11.242L35.9959 10.514ZM39.1106 4.116V14H40.9446V10.332H42.6106L44.5566 14H46.6706L44.4726 9.968C46.0406 9.45 46.4186 8.204 46.4186 7.252C46.4186 5.39 45.1026 4.116 43.1566 4.116H39.1106ZM40.9446 5.712H42.6246C43.8146 5.712 44.5426 6.174 44.5426 7.238C44.5426 8.4 43.7026 8.792 42.3726 8.792H40.9446V5.712ZM47.6993 9.072C47.6993 11.844 49.4913 14.252 52.4033 14.252C55.9593 14.252 57.1773 11.242 57.1773 9.002C57.1773 6.328 55.4553 3.864 52.4453 3.864C49.5893 3.864 47.6993 6.174 47.6993 9.072ZM49.6033 9.002C49.6033 6.832 50.8073 5.558 52.4313 5.558C54.3913 5.558 55.3153 7.392 55.3153 9.156C55.3153 11.396 53.9293 12.53 52.4593 12.53C50.3453 12.53 49.6033 10.542 49.6033 9.002ZM64.7581 14V12.32H60.8381V4.116H58.9761V14H64.7581ZM71.7855 14V12.32H67.8655V4.116H66.0035V14H71.7855ZM19.994 21.116V31H23.732C26.644 31 28.366 29.306 28.366 26.142C28.366 22.6 26.182 21.116 23.844 21.116H19.994ZM21.842 22.782H23.368C25.202 22.782 26.406 23.706 26.406 26.142C26.406 28.928 25.132 29.334 22.99 29.334H21.842V22.782ZM29.8849 26.072C29.8849 28.844 31.6769 31.252 34.5889 31.252C38.1449 31.252 39.3629 28.242 39.3629 26.002C39.3629 23.328 37.6409 20.864 34.6309 20.864C31.7749 20.864 29.8849 23.174 29.8849 26.072ZM31.7889 26.002C31.7889 23.832 32.9929 22.558 34.6169 22.558C36.5769 22.558 37.5009 24.392 37.5009 26.156C37.5009 28.396 36.1149 29.53 34.6449 29.53C32.5309 29.53 31.7889 27.542 31.7889 26.002ZM51.2622 21.116H49.3582L47.9722 28.648L46.4042 21.116H44.6822L43.1422 28.648L41.7982 21.116H39.9082L41.9662 31H44.1222L45.5502 24.126L46.9362 31H49.0922L51.2622 21.116ZM60.4951 31V21.116H58.6751C58.6891 21.34 58.8991 28.088 58.8991 28.088L54.5171 21.116H52.8511V31H54.6571C54.6571 30.818 54.5451 24.07 54.5451 24.07L58.8711 31H60.4951Z" fill="white"/>
<path d="M1 84.5L4 85.5L7.5 84.5L4 94L1 84.5Z" fill="white"/>
<path d="M4 3V85.5M4 85.5L1 84.5L4 94L7.5 84.5L4 85.5Z" stroke="white"/>
</svg>
