<svg width="14" height="14" viewBox="0 0 14 14" fill="none" xmlns="http://www.w3.org/2000/svg">
<path d="M10.2103 0H3.78967C1.70001 0 0 1.70001 0 3.78967V10.2104C0 12.3 1.70001 14 3.78967 14H10.2104C12.3 14 14 12.3 14 10.2104V3.78967C14 1.70001 12.3 0 10.2103 0V0ZM6.99999 10.828C4.88918 10.828 3.17198 9.11079 3.17198 6.99999C3.17198 4.88918 4.88918 3.17198 6.99999 3.17198C9.11079 3.17198 10.828 4.88918 10.828 6.99999C10.828 9.11079 9.11079 10.828 6.99999 10.828ZM10.9195 4.07475C10.2958 4.07475 9.7884 3.56739 9.7884 2.94361C9.7884 2.31983 10.2958 1.81237 10.9195 1.81237C11.5433 1.81237 12.0508 2.31983 12.0508 2.94361C12.0508 3.56739 11.5433 4.07475 10.9195 4.07475Z" fill="white"/>
<path d="M6.99946 3.99268C5.34132 3.99268 3.99219 5.3417 3.99219 6.99995C3.99219 8.65809 5.34132 10.0072 6.99946 10.0072C8.65771 10.0072 10.0067 8.65809 10.0067 6.99995C10.0067 5.3417 8.65771 3.99268 6.99946 3.99268Z" fill="white"/>
<path d="M10.9198 2.63318C10.7487 2.63318 10.6094 2.77246 10.6094 2.94357C10.6094 3.11468 10.7487 3.25397 10.9198 3.25397C11.091 3.25397 11.2303 3.11479 11.2303 2.94357C11.2303 2.77235 11.091 2.63318 10.9198 2.63318Z" fill="white"/>
</svg>
