<svg width="14" height="14" viewBox="0 0 14 14" fill="none" xmlns="http://www.w3.org/2000/svg">
<g clip-path="url(#clip0)">
<path d="M11.6171 7.59963C11.3908 7.31379 11.4555 7.18663 11.6171 6.93113C11.62 6.92821 13.4884 4.34638 13.6809 3.47079L13.6821 3.47021C13.7778 3.15113 13.6821 2.91663 13.2195 2.91663H11.6888C11.2992 2.91663 11.1195 3.11788 11.0233 3.34304C11.0233 3.34304 10.2439 5.20854 9.14142 6.41779C8.78558 6.76721 8.62108 6.87921 8.42683 6.87921C8.33117 6.87921 8.18242 6.76721 8.18242 6.44813V3.47021C8.18242 3.08754 8.07333 2.91663 7.75075 2.91663H5.34392C5.0995 2.91663 4.95425 3.09513 4.95425 3.26138C4.95425 3.62421 5.5055 3.70763 5.56267 4.72846V6.94338C5.56267 7.42871 5.47458 7.51796 5.27917 7.51796C4.75883 7.51796 3.49592 5.64488 2.7475 3.50113C2.59642 3.08521 2.44883 2.91721 2.05625 2.91721H0.525C0.0880833 2.91721 0 3.11846 0 3.34363C0 3.74146 0.520333 5.71954 2.41967 8.33288C3.6855 10.1167 5.46817 11.0833 7.08983 11.0833C8.06458 11.0833 8.18358 10.8686 8.18358 10.4994C8.18358 8.79488 8.0955 8.63388 8.58375 8.63388C8.81008 8.63388 9.19975 8.74588 10.1098 9.60629C11.1498 10.6265 11.3208 11.0833 11.9029 11.0833H13.4336C13.8699 11.0833 14.091 10.8686 13.9638 10.4451C13.6728 9.55438 11.7058 7.72213 11.6171 7.59963Z" fill="white"/>
</g>
<defs>
<clipPath id="clip0">
</clipPath>
</defs>
</svg>
