<svg width="159" height="41" fill="none" xmlns="http://www.w3.org/2000/svg"><path fill-rule="evenodd" clip-rule="evenodd" d="M86.272 29.055h13.396c.526-.009 1.023-.035 1.308-.26.34-.27.414-.766.415-1.164.002-.71-.419-1.33-1.326-1.391l-6.514-.002V17.95l5.603-.126c.427.008.852-.148 1.112-.519.337-.483.365-1.502-.081-1.915-.307-.284-.848-.348-1.37-.347l-4.12.056h-1.144v-2.384l1.633-.02 3.517-.045c1.043-.013 1.407-.667 1.412-1.364.004-.698-.35-1.441-1.374-1.441H86.27v19.21zm19.172-8.425l-.035.143-.948 3.853-.193.794-.504 2.074c-.185.724.028 1.235.371 1.505l.015.01a1.035 1.035 0 00.578.209.894.894 0 00.597-.195c.225-.182.421-.473.56-.89.178-.7.343-1.32.498-1.89.457-1.677.831-2.897 1.229-4.336l1.017 1.69.094.157 2.458 4.09 2.16-3.248 1.193-1.794.059-.088.149-.225.128-.192.003-.004 1.178-1.772 1.303 5.7.005.023.016.072.069.298.05.218.154.677.023.101.105.457.044.192.169.742h6.866l-.115-.437-.019-.073-.153-.609-.128-.516-.321-1.284-.053-.213-.051-.204-.002-.008-.298-1.192-1.121-4.44-1.803-7.328-.043-.174-.012-.048-.2-.812-.051-.207-.357-1.454-.518.776-4.354 6.525-1.572 2.357-3.298-5.664-.122-.209-2.204-3.785-2.381 9.674-.04.163-.195.79zM15.396 3.928a21.583 21.583 0 00-6.348 1.8c-2.893 1.335-5.125 3.287-6.696 5.857C.78 14.154 0 17.163 0 20.613c0 3.163.698 6.119 2.085 8.881 1.387 2.755 3.408 4.862 6.072 6.313 2.664 1.458 6.118 2.183 10.362 2.183 4.106 0 7.579-.949 10.417-2.84 2.839-1.89 4.804-4.63 5.898-8.233l-5.236-1.11c-.717 2.792-2.085 4.891-4.107 6.311-2.02 1.412-4.482 2.122-7.404 2.122-2.397 0-4.62-.517-6.678-1.559-2.058-1.041-3.573-2.608-4.547-4.714-.974-2.1-1.46-4.56-1.46-7.377 0-2.184.413-4.306 1.24-6.367.817-2.052 2.25-3.696 4.28-4.915 2.03-1.22 4.566-1.829 7.588-1.829.428 0 .844.015 1.248.044 2.086.149 3.857.683 5.311 1.608 1.736 1.095 3.068 2.855 3.978 5.262l5.125-1.018c-1.056-3.056-2.93-5.425-5.621-7.115-2.683-1.69-6-2.53-9.949-2.53a25.32 25.32 0 00-3.206.198zm66.989 8.635l.87-.005c1.521-.014 1.63-2.299.41-2.737a1.262 1.262 0 00-.405-.072l-1.986-.004h-.196l-.35-.001-6.557-.015-5.36-.013c-1.556.047-1.514 2.888-.069 2.877h2.19l1.653.01.035 1.332.036 3.812-.007 1.079-.027 4.185-.002.38v.047l-.036 5.522h7.171l-.016-6.344-.008-3.334.006-.891.004-.563.004-.602v-.13l.014-1.995.025-2.524 2.601-.014zM60.572 26.001a9.948 9.948 0 01-.686-.008l-.005-.511-.017-1.843-.033-3.582.054-7.366c1.878-.27 2.996.004 3.75.465.624.382.998.892 1.347 1.325.327.407.651.712.963.837.87.35 1.557-.349 1.28-1.406-.12-.46-.47-.93-.997-1.517-.923-1.024-1.95-1.742-3.078-2.153a7.024 7.024 0 00-2.415-.415 6.773 6.773 0 00-3.452.92 8.387 8.387 0 00-2.414 2.137 9.506 9.506 0 00-.983 1.59 10.905 10.905 0 00-1.125 4.868 10.906 10.906 0 001.08 4.783c.87 1.806 2.135 3.126 3.795 3.961 1.04.526 2.071.79 3.103.79a6.484 6.484 0 001.486-.177c.237-.055.477-.123.72-.204a7.231 7.231 0 002.33-1.287 7.928 7.928 0 00.99-.968 10.824 10.824 0 001.198-1.693c.36-.62.913-1.744.255-2.415-.396-.402-1.158-.428-1.635.087-.27.293-.512.732-.822 1.21-.452.698-1.047 1.476-2.081 1.993-.595.296-1.335.507-2.276.565a8.72 8.72 0 01-.332.014zm-11.46 1.695c.031.28.092.526.204.708.222.363.73.537 1.183.427a1.048 1.048 0 00.721-.6 1.373 1.373 0 00.115-.385c.162-1.008.057-2.855.03-3.885a13.76 13.76 0 01-.006-.377l.006-4.477.013-9.163-3.937 2.778-.519.366-.087.061-2.992 2.11-.099.07-.502.354-3.69 2.603-.041-7.055c-.004-.602-.416-.935-.977-.99-.597-.057-1.401.064-1.401.956v.18c.004.182.007.477.007.892l-.002 5.653-.005 11.105c1.486-1.111 3.665-2.65 6.527-4.61.275-.187.53-.362.767-.525l1.265-.869a90.656 90.656 0 013.319-2.2l.005.43.05 4.362.003.155.001.136.016 1.307c.002.169.01.331.026.483z" fill="#F9D26C"/><path fill-rule="evenodd" clip-rule="evenodd" d="M7.325 5.854c3.32 2.244 12.992 8.465 13.136 13.247.023.758-.636 1.332-1.215 2.066-4.497 5.704-10.554 7.574-16.197 10.243 4.15-.334 8.293-1.347 9.86-1.855 1.623-.526 4.402-2.28 6.375-3.9 1.49-1.223 2.434-2.537 2.451-2.245.242 4.181-1.788 8.778-3.63 12.329l-2.585 4.985c5.777-5.179 10.707-12.639 9.252-21.417 2.737-5.998 2.488-15-2.22-19.307.448 1.324 1.292 2.768 1.608 4.595.517 3 .283 6.553-.485 8.767-.332.956-.553 1.709-.882 1.697-.149-.006-2.34-3.003-5.245-5.094-2.302-1.658-7.587-3.494-10.223-4.11z" fill="#FEFEFE"/><path fill-rule="evenodd" clip-rule="evenodd" d="M20.844 5.335c-1.219.234-2.045 1.62-1.846 3.095.2 1.476 1.349 2.482 2.567 2.249 1.218-.234 2.044-1.62 1.845-3.096-.199-1.475-1.348-2.482-2.566-2.248z" fill="#FEFEFE"/><path fill-rule="evenodd" clip-rule="evenodd" d="M126.519 35.081l-.076.158-.025.052c-.061.13-.11.24-.15.333l-.004.01a4.417 4.417 0 00-.141.39c-.511 1.68.64 2.306 1.595 1.966a1.352 1.352 0 00.456-.28l.048-.045c.173-.169.319-.382.433-.623l2.019-3.715 2.942.012 2.414.01h6.799l1.961 4.415h14.084l-16.239-35.07-1.587 3.274-9.963 19.98-2.347 4.706c-1.207 2.428-1.865 3.701-2.219 4.427zm18.443-21.307l-3.528 7.085-2.828 5.836 6.037.15 6.051-.15-5.732-12.921z" fill="#F9D26C"/><path d="M84.11 37.816h-1.665l-.856-2.225-.514.858v1.367h-1.436v-5.92h1.436v2.442l1.364-2.442h1.366l-1.25 2.162 1.555 3.758zm3.298.088c-.698 0-1.268-.277-1.708-.828-.44-.552-.66-1.29-.66-2.214 0-.884.211-1.614.632-2.191.42-.575 1.004-.864 1.75-.864.691 0 1.255.272 1.69.815.436.543.653 1.268.653 2.174 0 .94-.22 1.693-.658 2.26-.44.566-1.005.848-1.7.848zm-.007-1.34c.258 0 .445-.135.557-.402.113-.268.17-.758.17-1.47 0-1.03-.233-1.545-.698-1.545-.502 0-.753.587-.753 1.763 0 1.102.242 1.654.724 1.654zm9.328-4.668v5.92h-1.413v-4.234l-.924 4.233h-.966l-.953-4.233v4.233h-1.138v-5.92h1.985l.72 3.146.687-3.145h2.002zm1.792 5.92v-5.92h4.1v5.92h-1.481v-4.651h-1.138v4.65h-1.48zm6.504 0h-1.216l1.57-5.92h1.617l1.543 5.92h-1.503l-.996-4.212-1.015 4.212zm8.458-1.412v1.411h-3.735v-5.92h3.735v1.368h-2.24v.86h1.808v1.314h-1.808v.967h2.24zm6 1.411h-1.665l-.856-2.224-.514.858v1.367h-1.436v-5.92h1.436v2.442l1.364-2.442h1.366l-1.251 2.162 1.556 3.758zm3.89-2.254l1.392.1c-.066.722-.29 1.277-.674 1.663a1.91 1.91 0 01-1.413.58 1.966 1.966 0 01-1.63-.797c-.414-.531-.621-1.266-.621-2.201 0-.928.196-1.676.588-2.246.392-.569.939-.853 1.64-.853.656 0 1.161.216 1.513.648.351.432.551 1.006.597 1.719l-1.421.091c0-.395-.063-.678-.19-.855-.127-.176-.277-.263-.448-.263-.477 0-.717.576-.717 1.728 0 .645.062 1.084.187 1.315.125.232.3.347.524.347.401 0 .625-.325.673-.976z" fill="#F9D26C"/><path d="M38.135 5.954c-.347-.032-.614-.169-.801-.408-.187-.24-.28-.535-.28-.886 0-.35.093-.645.281-.884.187-.238.454-.374.8-.406v-.39h.663v.39c.35.032.618.169.803.409.186.24.278.535.278.881 0 .353-.094.649-.283.887-.188.24-.454.375-.798.407v.39h-.663v-.39zm0-1.951c-.215.105-.323.324-.323.657 0 .332.108.551.323.656V4.003zm.663 1.313c.215-.105.323-.324.323-.656 0-.333-.108-.552-.323-.657v1.313zm9.957.599v.335h-.794V3.074h.794v1.271c0 .17-.008.37-.024.604a8.44 8.44 0 01.29-.675l.42-.86v-.34h.795V6.25h-.794V4.99c0-.182.006-.382.02-.602a6.93 6.93 0 01-.29.673l-.417.854zm10.77-2.08V6.25h-.775V3.836h-.55v-.762h1.875v.762h-.55zm10.77-.76V6.25h-.819V5.017h-.618V6.25h-.819V3.074h.819v1.171h.618v-1.17h.818zm10.198 2.418v.757H78.49V3.074h2.003v.733h-1.2v.462h.969v.705h-.97v.519h1.201zm9.514-.453l.747.054c-.036.388-.156.685-.362.892a1.027 1.027 0 01-.758.311c-.36 0-.652-.143-.874-.428-.222-.284-.333-.679-.333-1.18 0-.498.105-.899.315-1.204.21-.306.504-.458.88-.458.352 0 .623.116.812.347.188.232.295.54.32.922l-.763.05c0-.212-.034-.365-.102-.46-.067-.094-.148-.14-.24-.14-.256 0-.384.308-.384.926 0 .346.033.582.1.706s.16.186.281.186c.215 0 .335-.175.361-.524zm16.416 1.21h-.893l-.459-1.194-.276.46v.734h-.77V3.074h.77v1.31l.732-1.31h.733l-.671 1.16.834 2.016zm8.279 0h-.652l.842-3.176h.867l.828 3.176h-.806l-.535-2.26-.544 2.26zm10.426-.982l-1.011-2.194h.905l.468 1.22.384-1.22h.722l-.784 2.315c-.07.21-.15.377-.241.501a.896.896 0 01-.297.274.873.873 0 01-.41.086h-.412v-.705h.274c.228 0 .362-.092.402-.277zm9.311.982V3.074h1.964v.667h-1.17v.571h.443c.247 0 .439.033.577.098a.731.731 0 01.331.318c.082.146.122.324.122.534 0 .174-.033.343-.099.508a.673.673 0 01-.339.363c-.16.078-.322.117-.486.117h-1.343zm.794-.705h.398c.163 0 .245-.099.245-.295 0-.19-.1-.286-.3-.286h-.343v.58z" fill="#FEFEFE"/></svg>