<svg width="65" height="65" fill="none" xmlns="http://www.w3.org/2000/svg"><circle cx="32.5" cy="32.5" r="32.5" fill="#FEDB77"/><g clip-path="url(#clip0)"><path d="M27.819 41.707c.367.38.98.38 1.36 0a.96.96 0 000-1.347l-6.9-6.9h22.768a.948.948 0 00.953-.953.958.958 0 00-.953-.967H22.28l6.9-6.886a.977.977 0 000-1.361.953.953 0 00-1.361 0l-8.534 8.533a.937.937 0 000 1.347l8.534 8.534z" fill="#1E201D"/></g><defs><clipPath id="clip0"><path fill="#fff" transform="rotate(-180 23 23)" d="M0 0h27v27H0z"/></clipPath></defs></svg>