<svg width="74" height="96" fill="none" xmlns="http://www.w3.org/2000/svg"><path d="M27.75 5.866c-1.372-1.862-3.108-2.002-3.99-2.002-2.492 0-3.906 1.33-3.906 3.08 0 1.932 1.568 2.464 2.828 2.744l1.26.28c1.246.28 1.904.462 1.904 1.274 0 .854-.826 1.302-1.904 1.302-1.82 0-2.632-.84-3.066-1.484l-1.554 1.078c.882 1.526 2.674 2.114 4.326 2.114 1.764 0 4.2-.742 4.2-3.192 0-1.988-1.652-2.59-3.206-2.926l-1.036-.224c-1.05-.224-1.806-.406-1.806-1.176 0-1.05 1.428-1.204 1.848-1.204 1.554 0 2.268.966 2.576 1.47l1.526-1.134zm8.246 4.648c-.294 1.008-1.12 1.988-2.394 1.988-2.198 0-2.744-2.17-2.744-3.514 0-2.198 1.148-3.43 2.758-3.43 1.092 0 2.002.756 2.114 1.834l1.834-.476c-.42-1.414-1.47-3.052-4.018-3.052-3.444 0-4.69 2.898-4.69 5.096 0 3.696 2.282 5.292 4.62 5.292 2.842 0 3.948-2.17 4.27-3.01l-1.75-.728zm3.115-6.398V14h1.834v-3.668h1.666L44.557 14h2.114l-2.198-4.032c1.568-.518 1.946-1.764 1.946-2.716 0-1.862-1.316-3.136-3.262-3.136H39.11zm1.834 1.596h1.68c1.19 0 1.918.462 1.918 1.526 0 1.162-.84 1.554-2.17 1.554h-1.428v-3.08zm6.754 3.36c0 2.772 1.792 5.18 4.704 5.18 3.556 0 4.774-3.01 4.774-5.25 0-2.674-1.722-5.138-4.732-5.138-2.856 0-4.746 2.31-4.746 5.208zm1.904-.07c0-2.17 1.204-3.444 2.828-3.444 1.96 0 2.884 1.834 2.884 3.598 0 2.24-1.386 3.374-2.856 3.374-2.114 0-2.856-1.988-2.856-3.528zM64.758 14v-1.68h-3.92V4.116h-1.862V14h5.782zm7.028 0v-1.68h-3.92V4.116h-1.862V14h5.781zm-51.792 7.116V31h3.738c2.912 0 4.634-1.694 4.634-4.858 0-3.542-2.184-5.026-4.522-5.026h-3.85zm1.848 1.666h1.526c1.834 0 3.038.924 3.038 3.36 0 2.786-1.274 3.192-3.416 3.192h-1.148v-6.552zm8.043 3.29c0 2.772 1.792 5.18 4.704 5.18 3.556 0 4.774-3.01 4.774-5.25 0-2.674-1.722-5.138-4.732-5.138-2.856 0-4.746 2.31-4.746 5.208zm1.904-.07c0-2.17 1.204-3.444 2.828-3.444 1.96 0 2.884 1.834 2.884 3.598 0 2.24-1.386 3.374-2.856 3.374-2.114 0-2.856-1.988-2.856-3.528zm19.473-4.886h-1.904l-1.386 7.532-1.568-7.532h-1.722l-1.54 7.532-1.344-7.532h-1.89L41.966 31h2.156l1.428-6.874L46.936 31h2.156l2.17-9.884zM60.495 31v-9.884h-1.82c.014.224.224 6.972.224 6.972l-4.382-6.972h-1.666V31h1.806c0-.182-.112-6.93-.112-6.93L58.871 31h1.624zM1 84.5l3 1 3.5-1L4 94l-3-9.5z" fill="#fff"/><path d="M4 3v82.5m0 0l-3-1L4 94l3.5-9.5-3.5 1z" stroke="#fff"/></svg>